<svg width="628" height="628" viewBox="0 0 628 628" fill="none" xmlns="http://www.w3.org/2000/svg">
<rect x="45" y="496" width="408" height="493" rx="16" transform="rotate(-90 45 496)" fill="white" stroke="#05060F" stroke-width="8"/>
<rect x="71" y="470" width="283" height="441" rx="8" transform="rotate(-90 71 470)" fill="#F8DB46" stroke="#05060F" stroke-width="8"/>
<path d="M41 122C41 101.013 58.0132 84 79 84H504C524.987 84 542 101.013 542 122V164H41V122Z" fill="#05060F"/>
<circle cx="92.5" cy="127.5" r="13.5" fill="#F95959"/>
<circle cx="137.5" cy="127.5" r="13.5" fill="#F8DB46"/>
<ellipse cx="183" cy="127.5" rx="14" ry="13.5" fill="#41CC4F"/>
<circle cx="516" cy="474" r="70" fill="#05060F"/>
<path fill-rule="evenodd" clip-rule="evenodd" d="M516.042 441.75C519.003 441.75 521.443 444.166 521.443 447.134L521.445 468.656H542.889C545.85 468.656 548.25 471.063 548.25 474.031C548.25 477 545.85 479.406 542.889 479.406H521.445L521.444 500.86C521.444 503.828 519.044 506.235 516.083 506.235C513.122 506.235 510.721 503.828 510.721 500.86L510.722 479.406H489.183C486.222 479.406 483.75 476.926 483.75 473.957C483.75 470.989 486.222 468.656 489.183 468.656H510.722L510.72 447.134C510.72 444.166 513.081 441.75 516.042 441.75Z" fill="white"/>
<path d="M265.251 267.25C265.251 272.082 261.333 276 256.501 276C251.668 276 247.751 272.082 247.751 267.25C247.751 262.418 251.668 258.5 256.501 258.5C261.333 258.5 265.251 262.418 265.251 267.25Z" fill="white"/>
<path fill-rule="evenodd" clip-rule="evenodd" d="M312.185 275.899C308.808 270.111 300.445 270.111 297.069 275.899L284.596 297.281L279.277 288.577C275.865 282.994 267.756 282.994 264.344 288.577L248.083 315.187C244.52 321.018 248.716 328.5 255.549 328.5L282.751 328.5L327.635 328.5C334.388 328.5 338.596 321.174 335.193 315.341L312.185 275.899Z" fill="white"/>
<path d="M265.251 267.25C265.251 272.082 261.333 276 256.501 276C251.668 276 247.751 272.082 247.751 267.25C247.751 262.418 251.668 258.5 256.501 258.5C261.333 258.5 265.251 262.418 265.251 267.25Z" stroke="#05060F" stroke-width="8"/>
<path fill-rule="evenodd" clip-rule="evenodd" d="M312.185 275.899C308.808 270.111 300.445 270.111 297.069 275.899L284.596 297.281L279.277 288.577C275.865 282.994 267.756 282.994 264.344 288.577L248.083 315.187C244.52 321.018 248.716 328.5 255.549 328.5L282.751 328.5L327.635 328.5C334.388 328.5 338.596 321.174 335.193 315.341L312.185 275.899Z" stroke="#05060F" stroke-width="8"/>
<path d="M172.609 404V374.909H184.086C186.293 374.909 188.172 375.33 189.725 376.173C191.278 377.007 192.462 378.167 193.276 379.653C194.1 381.131 194.512 382.835 194.512 384.767C194.512 386.699 194.096 388.403 193.262 389.881C192.429 391.358 191.222 392.509 189.64 393.332C188.068 394.156 186.165 394.568 183.93 394.568H176.615V389.639H182.936C184.119 389.639 185.095 389.436 185.862 389.028C186.638 388.612 187.216 388.039 187.595 387.31C187.983 386.571 188.177 385.723 188.177 384.767C188.177 383.801 187.983 382.958 187.595 382.239C187.216 381.509 186.638 380.946 185.862 380.548C185.085 380.141 184.1 379.938 182.907 379.938H178.759V404H172.609ZM226.84 389.455C226.84 392.627 226.239 395.326 225.036 397.551C223.843 399.777 222.214 401.476 220.15 402.651C218.095 403.815 215.784 404.398 213.218 404.398C210.633 404.398 208.313 403.811 206.258 402.636C204.203 401.462 202.579 399.762 201.386 397.537C200.193 395.312 199.596 392.617 199.596 389.455C199.596 386.282 200.193 383.583 201.386 381.358C202.579 379.133 204.203 377.437 206.258 376.273C208.313 375.098 210.633 374.511 213.218 374.511C215.784 374.511 218.095 375.098 220.15 376.273C222.214 377.437 223.843 379.133 225.036 381.358C226.239 383.583 226.84 386.282 226.84 389.455ZM220.604 389.455C220.604 387.4 220.297 385.667 219.681 384.256C219.075 382.845 218.218 381.775 217.11 381.045C216.002 380.316 214.705 379.952 213.218 379.952C211.731 379.952 210.434 380.316 209.326 381.045C208.218 381.775 207.356 382.845 206.741 384.256C206.135 385.667 205.832 387.4 205.832 389.455C205.832 391.509 206.135 393.242 206.741 394.653C207.356 396.064 208.218 397.134 209.326 397.864C210.434 398.593 211.731 398.957 213.218 398.957C214.705 398.957 216.002 398.593 217.11 397.864C218.218 397.134 219.075 396.064 219.681 394.653C220.297 393.242 220.604 391.509 220.604 389.455ZM232.996 404V374.909H244.474C246.671 374.909 248.546 375.302 250.099 376.088C251.661 376.865 252.85 377.968 253.664 379.398C254.488 380.818 254.9 382.49 254.9 384.412C254.9 386.344 254.483 388.006 253.65 389.398C252.816 390.78 251.609 391.841 250.028 392.58C248.456 393.318 246.552 393.688 244.317 393.688H236.633V388.744H243.323C244.497 388.744 245.473 388.583 246.249 388.261C247.026 387.939 247.603 387.456 247.982 386.812C248.37 386.169 248.565 385.368 248.565 384.412C248.565 383.446 248.37 382.632 247.982 381.969C247.603 381.306 247.021 380.804 246.235 380.463C245.458 380.113 244.478 379.938 243.295 379.938H239.147V404H232.996ZM248.707 390.761L255.937 404H249.147L242.073 390.761H248.707ZM259.738 379.98V374.909H283.63V379.98H274.724V404H268.645V379.98H259.738ZM289.165 404V374.909H308.426V379.98H295.316V386.912H307.148V391.983H295.316V404H289.165ZM340.897 389.455C340.897 392.627 340.295 395.326 339.093 397.551C337.899 399.777 336.271 401.476 334.206 402.651C332.151 403.815 329.841 404.398 327.274 404.398C324.689 404.398 322.369 403.811 320.314 402.636C318.259 401.462 316.635 399.762 315.442 397.537C314.249 395.312 313.652 392.617 313.652 389.455C313.652 386.282 314.249 383.583 315.442 381.358C316.635 379.133 318.259 377.437 320.314 376.273C322.369 375.098 324.689 374.511 327.274 374.511C329.841 374.511 332.151 375.098 334.206 376.273C336.271 377.437 337.899 379.133 339.093 381.358C340.295 383.583 340.897 386.282 340.897 389.455ZM334.661 389.455C334.661 387.4 334.353 385.667 333.737 384.256C333.131 382.845 332.274 381.775 331.166 381.045C330.058 380.316 328.761 379.952 327.274 379.952C325.788 379.952 324.49 380.316 323.382 381.045C322.274 381.775 321.413 382.845 320.797 384.256C320.191 385.667 319.888 387.4 319.888 389.455C319.888 391.509 320.191 393.242 320.797 394.653C321.413 396.064 322.274 397.134 323.382 397.864C324.49 398.593 325.788 398.957 327.274 398.957C328.761 398.957 330.058 398.593 331.166 397.864C332.274 397.134 333.131 396.064 333.737 394.653C334.353 393.242 334.661 391.509 334.661 389.455ZM347.053 404V374.909H353.203V398.929H365.675V404H347.053ZM377.498 374.909V404H371.348V374.909H377.498ZM410.892 389.455C410.892 392.627 410.291 395.326 409.088 397.551C407.895 399.777 406.266 401.476 404.201 402.651C402.147 403.815 399.836 404.398 397.27 404.398C394.684 404.398 392.364 403.811 390.309 402.636C388.255 401.462 386.63 399.762 385.437 397.537C384.244 395.312 383.648 392.617 383.648 389.455C383.648 386.282 384.244 383.583 385.437 381.358C386.63 379.133 388.255 377.437 390.309 376.273C392.364 375.098 394.684 374.511 397.27 374.511C399.836 374.511 402.147 375.098 404.201 376.273C406.266 377.437 407.895 379.133 409.088 381.358C410.291 383.583 410.892 386.282 410.892 389.455ZM404.656 389.455C404.656 387.4 404.348 385.667 403.733 384.256C403.127 382.845 402.27 381.775 401.162 381.045C400.054 380.316 398.756 379.952 397.27 379.952C395.783 379.952 394.486 380.316 393.378 381.045C392.27 381.775 391.408 382.845 390.792 384.256C390.186 385.667 389.883 387.4 389.883 389.455C389.883 391.509 390.186 393.242 390.792 394.653C391.408 396.064 392.27 397.134 393.378 397.864C394.486 398.593 395.783 398.957 397.27 398.957C398.756 398.957 400.054 398.593 401.162 397.864C402.27 397.134 403.127 396.064 403.733 394.653C404.348 393.242 404.656 391.509 404.656 389.455Z" fill="#05060F"/>
</svg>
